<?xml version="1.0" standalone="no"?>
<!DOCTYPE svg PUBLIC "-//W3C//DTD SVG 20010904//EN"
 "http://www.w3.org/TR/2001/REC-SVG-20010904/DTD/svg10.dtd">
<svg version="1.0" xmlns="http://www.w3.org/2000/svg"
 width="1280.000000pt" height="1238.000000pt" viewBox="0 0 1280.000000 1238.000000"
 preserveAspectRatio="xMidYMid meet">
<g transform="translate(0.000000,1238.000000) scale(0.100000,-0.100000)"
fill="#FFFFFF" stroke="none">
<path d="M5474 12362 c-50 -24 -90 -74 -102 -127 -10 -46 3 -1760 14 -1820 12
-69 45 -115 104 -145 20 -11 257 -13 1155 -15 936 -1 1174 -4 1385 -18 509
-33 808 -73 924 -121 30 -13 35 -20 45 -68 30 -148 33 -340 26 -1543 -4 -665
-9 -1213 -12 -1217 -2 -5 -379 -8 -836 -8 -788 0 -834 -1 -873 -19 -72 -33
-111 -107 -100 -187 3 -24 14 -56 23 -72 10 -15 239 -297 508 -627 582 -711
1736 -2129 2749 -3378 563 -693 738 -903 767 -918 69 -35 168 -20 216 32 55
60 52 22 63 1066 59 5730 33 7184 -140 7876 -67 264 -151 412 -365 635 -178
186 -321 287 -515 363 -462 183 -1283 248 -3815 304 -368 8 -785 17 -925 20
-238 5 -258 5 -296 -13z"/>
<path d="M1292 12349 c-26 -13 -55 -39 -70 -62 l-27 -41 -7 -360 c-27 -1408
-45 -5208 -29 -6176 31 -1879 96 -2407 343 -2767 66 -97 287 -326 390 -405
409 -312 1018 -391 3493 -453 1198 -30 1434 -35 1631 -35 l200 0 45 29 c68 42
83 82 87 221 7 225 -18 1704 -29 1745 -14 51 -74 109 -125 122 -25 6 -221 6
-539 1 -1418 -25 -2544 29 -2876 138 -50 16 -49 12 -74 164 -19 115 -25 603
-19 1587 l7 1082 841 3 c820 3 842 3 875 23 89 52 123 149 83 236 -11 24 -199
262 -418 529 -596 727 -1685 2065 -2658 3265 -478 589 -882 1085 -900 1104
-64 69 -148 87 -224 50z"/>
</g>
</svg>
