<?xml version="1.0" encoding="UTF-8" standalone="no"?>
<svg
   xmlns:dc="http://purl.org/dc/elements/1.1/"
   xmlns:cc="http://creativecommons.org/ns#"
   xmlns:rdf="http://www.w3.org/1999/02/22-rdf-syntax-ns#"
   xmlns:svg="http://www.w3.org/2000/svg"
   xmlns="http://www.w3.org/2000/svg"
   xmlns:sodipodi="http://sodipodi.sourceforge.net/DTD/sodipodi-0.dtd"
   xmlns:inkscape="http://www.inkscape.org/namespaces/inkscape"
   version="1.0"
   width="1280.000000pt"
   height="1280.000000pt"
   viewBox="0 0 1280.000000 1280.000000"
   preserveAspectRatio="xMidYMid meet"
   id="svg6"
   sodipodi:docname="Delete.svg"
   inkscape:version="0.92.3 (2405546, 2018-03-11)">
  <metadata
     id="metadata12">
    <rdf:RDF>
      <cc:Work
         rdf:about="">
        <dc:format>image/svg+xml</dc:format>
        <dc:type
           rdf:resource="http://purl.org/dc/dcmitype/StillImage" />
      </cc:Work>
    </rdf:RDF>
  </metadata>
  <defs
     id="defs10" />
  <sodipodi:namedview
     pagecolor="#ffffff"
     bordercolor="#666666"
     borderopacity="1"
     objecttolerance="10"
     gridtolerance="10"
     guidetolerance="10"
     inkscape:pageopacity="0"
     inkscape:pageshadow="2"
     inkscape:window-width="640"
     inkscape:window-height="480"
     id="namedview8"
     showgrid="false"
     inkscape:zoom="0.12926796"
     inkscape:cx="1682.8987"
     inkscape:cy="597.93522"
     inkscape:current-layer="svg6" />
  <g
     transform="matrix(0.12643539,0,0,-0.12643539,-169.73422,1447.8944)"
     id="g4"
     style="fill:#FFFFFF;stroke:none">
    <path
       d="m 6295,11439 c -245,-15 -472,-94 -691,-240 -231,-155 -422,-394 -523,-654 -33,-83 -58,-177 -87,-322 l -4,-23 h -993 c -976,0 -993,-1 -1037,-21 -55,-25 -95,-62 -123,-114 -21,-38 -22,-53 -25,-388 -3,-407 0,-429 73,-502 66,-67 106,-75 367,-75 h 218 l 2,-3587 3,-3588 23,-70 c 43,-125 90,-204 177,-290 130,-129 249,-186 431,-205 67,-7 811,-10 2314,-8 2077,3 2219,5 2280,21 231,63 418,236 496,458 l 29,84 3,3593 2,3592 h 268 c 315,0 345,5 416,74 74,73 77,94 74,503 -3,335 -4,350 -25,388 -28,52 -68,89 -123,114 -44,20 -61,21 -1037,21 h -993 l -4,23 c -74,369 -188,592 -418,819 -286,282 -673,423 -1093,397 z m 212,-610 c 260,-35 480,-188 606,-420 31,-56 77,-177 77,-201 0,-4 -355,-8 -790,-8 -434,0 -790,4 -790,8 0,5 9,38 21,73 104,321 411,548 756,558 23,0 77,-4 120,-10 z"
       id="path2"
       inkscape:connector-curvature="0" />
  </g>
</svg>
