<?xml version="1.0" encoding="UTF-8" standalone="no"?>
<svg
   xmlns:dc="http://purl.org/dc/elements/1.1/"
   xmlns:cc="http://creativecommons.org/ns#"
   xmlns:rdf="http://www.w3.org/1999/02/22-rdf-syntax-ns#"
   xmlns:svg="http://www.w3.org/2000/svg"
   xmlns="http://www.w3.org/2000/svg"
   xmlns:sodipodi="http://sodipodi.sourceforge.net/DTD/sodipodi-0.dtd"
   xmlns:inkscape="http://www.inkscape.org/namespaces/inkscape"
   version="1.0"
   width="1280.000000pt"
   height="1280.000000pt"
   viewBox="0 0 1280.000000 1280.000000"
   preserveAspectRatio="xMidYMid meet"
   id="svg16"
   sodipodi:docname="Diaphragm.svg"
   inkscape:version="0.92.3 (2405546, 2018-03-11)">
  <metadata
     id="metadata22">
    <rdf:RDF>
      <cc:Work
         rdf:about="">
        <dc:format>image/svg+xml</dc:format>
        <dc:type
           rdf:resource="http://purl.org/dc/dcmitype/StillImage" />
        <dc:title></dc:title>
      </cc:Work>
    </rdf:RDF>
  </metadata>
  <defs
     id="defs20" />
  <sodipodi:namedview
     pagecolor="#ffffff"
     bordercolor="#666666"
     borderopacity="1"
     objecttolerance="10"
     gridtolerance="10"
     guidetolerance="10"
     inkscape:pageopacity="0"
     inkscape:pageshadow="2"
     inkscape:window-width="640"
     inkscape:window-height="480"
     id="namedview18"
     showgrid="false"
     inkscape:zoom="0.25853592"
     inkscape:cx="1359.4177"
     inkscape:cy="979.83419"
     inkscape:current-layer="svg16" />
  <g
     transform="matrix(0.11995348,0,0,-0.11995348,-128.18805,1407.9904)"
     id="g14"
     style="fill:#FFFFFF;stroke:none">
    <path
       d="m 5995,11719 c -1542,-123 -2936,-887 -3857,-2114 -89,-119 -298,-425 -298,-438 0,-3 21,3 46,14 25,11 52,18 61,15 8,-4 82,16 164,44 323,108 603,167 954,201 140,13 513,18 600,7 33,-4 89,-10 125,-13 36,-3 72,-8 80,-10 8,-2 36,-7 61,-9 304,-35 778,-191 1089,-359 l 115,-62 1300,-3 c 715,-1 1311,0 1323,3 22,5 23,9 18,53 -4,26 -9,72 -11,102 -3,30 -9,78 -15,105 -5,28 -17,91 -26,140 -150,821 -656,1616 -1374,2160 -96,72 -247,176 -252,174 -2,-1 -48,-5 -103,-10 z"
       id="path2"
       inkscape:connector-curvature="0" />
    <path
       d="m 6530,11717 c 8,-8 49,-41 90,-74 425,-343 805,-824 1040,-1315 216,-453 327,-895 355,-1421 l 6,-117 656,-1138 c 361,-625 658,-1139 660,-1141 1,-2 9,1 16,8 8,6 21,9 30,6 9,-4 57,25 125,77 660,496 1113,1231 1296,2104 43,208 80,534 63,561 -4,6 -4,18 -1,27 7,17 -110,192 -241,361 -416,535 -923,985 -1497,1328 -620,371 -1328,616 -2045,707 -139,18 -406,40 -488,40 -67,0 -77,-2 -65,-13 z"
       id="path4"
       inkscape:connector-curvature="0" />
    <path
       d="m 3030,9215 c -441,-42 -821,-144 -1235,-332 -77,-35 -145,-69 -152,-76 -17,-17 -135,-277 -203,-447 -316,-795 -435,-1688 -339,-2555 51,-465 172,-946 347,-1385 102,-256 271,-599 280,-569 2,8 11,28 18,44 7,17 23,80 34,140 118,619 385,1210 759,1679 247,311 520,560 856,782 77,51 146,102 153,114 8,12 266,459 574,994 309,534 592,1024 630,1089 46,81 70,132 73,160 4,48 20,37 -182,122 -479,203 -1073,291 -1613,240 z"
       id="path6"
       inkscape:connector-curvature="0" />
    <path
       d="m 11060,8899 c -102,-648 -332,-1218 -685,-1704 -290,-398 -625,-706 -1078,-990 -9,-5 -284,-476 -613,-1045 -328,-569 -623,-1081 -656,-1138 -35,-59 -57,-107 -52,-112 15,-15 125,-67 231,-109 145,-58 324,-114 453,-143 25,-5 63,-14 85,-19 64,-14 203,-39 248,-44 23,-3 53,-8 67,-10 24,-5 55,-8 245,-20 509,-34 1039,56 1557,263 129,52 280,123 306,144 22,18 119,227 201,431 198,495 315,1003 361,1561 10,118 12,477 4,666 -3,52 -5,104 -5,115 0,11 -5,58 -11,105 -5,47 -11,112 -14,145 -2,33 -6,67 -9,75 -2,8 -7,40 -10,70 -3,30 -8,62 -10,70 -2,8 -7,35 -10,60 -17,136 -93,460 -164,695 -87,291 -261,706 -393,944 l -36,63 z"
       id="path8"
       inkscape:connector-curvature="0" />
    <path
       d="m 3389,6242 c -220,-158 -498,-421 -663,-627 -398,-500 -660,-1113 -755,-1770 -12,-77 -24,-192 -27,-255 l -6,-115 87,-125 c 608,-865 1435,-1521 2412,-1911 167,-67 450,-160 614,-203 190,-49 501,-111 609,-122 25,-2 52,-6 60,-9 8,-3 45,-7 80,-10 36,-3 99,-9 140,-14 41,-5 89,-9 105,-9 64,-2 230,-1 232,1 1,2 -54,49 -123,107 -662,548 -1131,1319 -1292,2125 -25,123 -31,158 -38,226 -3,30 -8,57 -10,60 -5,9 -16,163 -19,269 -1,47 -6,101 -10,120 -5,19 -294,530 -644,1135 -349,605 -644,1117 -655,1137 -12,21 -23,38 -26,38 -3,-1 -35,-22 -71,-48 z"
       id="path10"
       inkscape:connector-curvature="0" />
    <path
       d="M 5032,3718 C 5136,2684 5708,1748 6617,1123 l 83,-56 93,1 c 220,4 664,74 967,153 775,203 1463,558 2090,1078 154,128 523,496 650,651 204,247 426,560 415,587 -3,8 7,35 21,59 l 26,45 -53,-22 c -116,-47 -371,-130 -504,-163 -903,-230 -1804,-134 -2605,275 l -135,69 H 6344 5024 Z"
       id="path12"
       inkscape:connector-curvature="0" />
  </g>
</svg>
